<svg width="48" height="48" viewBox="0 0 48 48" fill="none" xmlns="http://www.w3.org/2000/svg">
<circle opacity="0.15" cx="24" cy="24" r="23.5" fill="#F5F9FE" stroke="#E7F1F8"/>
<path d="M37.25 24C37.25 16.6822 31.3178 10.75 24 10.75C16.6822 10.75 10.75 16.6822 10.75 24C10.75 31.3178 16.6822 37.25 24 37.25" stroke="white" stroke-width="1.5" stroke-linecap="round"/>
<path d="M19.6855 17.1777L24.0751 24.4059L28.7281 21.7136" stroke="#00B8F5" stroke-width="1.5" stroke-linecap="round"/>
<circle cx="24.0009" cy="24.0009" r="1.04587" fill="#00B8F5" stroke="#00B8F5"/>
<path d="M14.4004 24L12.9004 24" stroke="white" stroke-width="1.5" stroke-linecap="round"/>
<path d="M39.6289 20.7008L37.3141 24.066L33.7344 20.7008" stroke="white" stroke-width="1.5" stroke-linecap="round" stroke-linejoin="round"/>
<path d="M22.0814 34V33.1494L24.0688 31.3093C24.2378 31.1457 24.3796 30.9985 24.4941 30.8677C24.6104 30.7368 24.6985 30.6087 24.7585 30.4833C24.8185 30.3561 24.8485 30.2188 24.8485 30.0716C24.8485 29.9081 24.8112 29.7672 24.7367 29.6491C24.6622 29.5291 24.5604 29.4373 24.4314 29.3737C24.3023 29.3083 24.156 29.2756 23.9925 29.2756C23.8216 29.2756 23.6726 29.3101 23.5454 29.3792C23.4182 29.4482 23.32 29.5473 23.251 29.6763C23.1819 29.8054 23.1474 29.9589 23.1474 30.1371H22.0269C22.0269 29.7717 22.1096 29.4546 22.275 29.1856C22.4404 28.9166 22.6721 28.7086 22.9702 28.5613C23.2682 28.4141 23.6117 28.3405 24.0007 28.3405C24.4005 28.3405 24.7485 28.4114 25.0448 28.5532C25.3428 28.6931 25.5745 28.8876 25.7399 29.1366C25.9053 29.3855 25.988 29.6709 25.988 29.9926C25.988 30.2034 25.9462 30.4115 25.8626 30.6169C25.7808 30.8222 25.6345 31.0503 25.4237 31.3011C25.2129 31.5501 24.9157 31.8491 24.5323 32.198L23.7171 32.9968V33.0349H26.0616V34H22.0814ZM26.7125 33.0186V32.089L29.0433 28.4169H29.8448V29.7036H29.3705L27.9011 32.029V32.0726H31.2134V33.0186H26.7125ZM29.3923 34V32.7351L29.4141 32.3234V28.4169H30.5209V34H29.3923ZM34.4425 28.1551L32.6432 34.8397H31.6427L33.442 28.1551H34.4425ZM35.2119 34L37.5264 29.4201V29.3819H34.8303V28.4169H38.7477V29.3955L36.4305 34H35.2119Z" fill="#00B8F5"/>
<path d="M24 12.9609V14.4609" stroke="white" stroke-width="1.5" stroke-linecap="round"/>
</svg>
