<svg width="48" height="48" viewBox="0 0 48 48" fill="none" xmlns="http://www.w3.org/2000/svg">
<circle opacity="0.15" cx="24" cy="24" r="23.5" fill="#F5F9FE" stroke="#E7F1F8"/>
<path d="M35.7559 20.2299H12.2344V16.3644L23.9451 10.7695L35.7559 16.2626V20.2299Z" stroke="white" stroke-width="1.5" stroke-miterlimit="10" stroke-linecap="round" stroke-linejoin="round"/>
<path d="M14.75 20.4688V36.7687" stroke="white" stroke-width="1.5" stroke-miterlimit="10" stroke-linecap="round" stroke-linejoin="round"/>
<path d="M33.25 20.5234V36.7234" stroke="white" stroke-width="1.5" stroke-miterlimit="10" stroke-linecap="round" stroke-linejoin="round"/>
<path d="M23.9961 20.4688V36.7687" stroke="white" stroke-width="1.5" stroke-miterlimit="10" stroke-linecap="round" stroke-linejoin="round"/>
<path d="M12.293 37.2305H37.2545" stroke="white" stroke-width="1.5" stroke-miterlimit="10" stroke-linecap="round" stroke-linejoin="round"/>
<path d="M23.9937 17.3703C24.7669 17.3703 25.3937 16.7435 25.3937 15.9703C25.3937 15.1971 24.7669 14.5703 23.9937 14.5703C23.2206 14.5703 22.5938 15.1971 22.5938 15.9703C22.5938 16.7435 23.2206 17.3703 23.9937 17.3703Z" fill="white"/>
<path fill-rule="evenodd" clip-rule="evenodd" d="M28.3629 28.6357V28.6505C27.5213 29.1863 27.0312 30.149 27.0312 31.1778V36.0199C27.0312 37.5797 28.1711 38.9805 29.8707 38.9805H36.1655C37.8651 38.9805 39.0049 37.5797 39.0049 36.0199V31.1778C39.0049 30.0511 38.4135 29.0038 37.4296 28.5112C37.3664 26.1226 35.4912 23.9805 32.8971 23.9805C30.2579 23.9805 28.3629 26.1976 28.3629 28.6357Z" fill="#254885"/>
<path d="M37.3759 29.8457H28.6602V36.9878H37.3759V29.8457Z" fill="#254885"/>
<path fill-rule="evenodd" clip-rule="evenodd" d="M29.8707 29.9668H36.1655C36.7707 29.9668 37.2549 30.451 37.2549 31.1773V36.0194C37.2549 36.7457 36.7707 37.23 36.1655 37.23H29.8707C29.2655 37.23 28.7812 36.7457 28.7812 36.0194V31.1773C28.7812 30.451 29.2655 29.9668 29.8707 29.9668Z" stroke="#00B8F5" stroke-width="1.5" stroke-miterlimit="10" stroke-linecap="round" stroke-linejoin="round"/>
<path d="M33.0173 33.4779C33.4853 33.4779 33.8647 33.0986 33.8647 32.6306C33.8647 32.1626 33.4853 31.7832 33.0173 31.7832C32.5493 31.7832 32.1699 32.1626 32.1699 32.6306C32.1699 33.0986 32.5493 33.4779 33.0173 33.4779Z" fill="#00B8F5"/>
<path d="M30.1133 29.8463V28.6357C30.1133 27.062 31.3238 25.7305 32.8975 25.7305C34.4712 25.7305 35.6817 27.062 35.6817 28.6357V29.8463" stroke="#00B8F5" stroke-width="1.5" stroke-miterlimit="10" stroke-linecap="round" stroke-linejoin="round"/>
<path d="M33.0176 33.3574V34.5679" stroke="#00B8F5" stroke-miterlimit="10" stroke-linecap="round" stroke-linejoin="round"/>
</svg>
