<?xml version="1.0" encoding="utf-8"?>
<svg height="24px" viewBox="-0.0001 0.085 71.6591 23.034" xmlns="http://www.w3.org/2000/svg">
  <path d="M71.417,6.88 C70.766,4.971 68.994,3.603 66.911,3.603 L66.868,3.603 C65.5612686,3.60501886 64.3142879,4.15061821 63.426,5.109 C62.5380205,4.15077193 61.2914088,3.60517555 59.985,3.603 L59.94,3.603 C58.751,3.603 57.664,4.051 56.829,4.789 L56.829,4.414 C56.8070219,4.041471 56.5011417,3.74911761 56.128,3.744 L52.935,3.744 C52.745014,3.7463689 52.5637835,3.82425889 52.431322,3.96047288 C52.2988604,4.09668687 52.2260621,4.2800219 52.229,4.47 L52.229,22.257 C52.229,22.659 52.545,22.983 52.935,22.983 L56.128,22.983 C56.4845251,22.9784106 56.7823478,22.7101134 56.824,22.356 L56.823,9.589 C56.823,9.546 56.824,9.502 56.829,9.459 C56.881,8.89 57.287,8.421 57.929,8.364 L58.519,8.364 C58.789,8.387 59.016,8.485 59.192,8.631 C59.471,8.858 59.626,9.205 59.626,9.589 L59.638,22.294 C59.638,22.694 59.954,23.02 60.344,23.02 L63.537,23.02 C63.9178729,23.0143454 64.2272381,22.710701 64.24,22.33 L64.237,9.572 C64.237,9.152 64.426,8.772 64.758,8.549 C64.921,8.439 65.118,8.367 65.345,8.347 L65.934,8.347 C66.624,8.409 67.043,8.944 67.041,9.572 L67.053,22.261 C67.053,22.661 67.37,22.985 67.759,22.985 L70.953,22.985 C71.343,22.985 71.659,22.661 71.659,22.261 L71.659,8.613 C71.659,7.683 71.556,7.286 71.417,6.881 M49.796,3.792 L47.97,3.792 L47.97,0.757 L47.969,0.757 L47.969,0.747 C47.973451,0.386565123 47.6854206,0.0904841747 47.325,0.085 C47.2839061,0.0855082133 47.2429931,0.090538508 47.203,0.1 C45.177,0.669 45.583,3.546 41.887,3.792 L41.527,3.792 C41.4751404,3.79197468 41.4234559,3.79801573 41.373,3.81 L41.37,3.81 L41.373,3.81 C41.0474824,3.88810209 40.8187356,4.18025158 40.821,4.515 L40.821,7.79 C40.821,8.191 41.138,8.516 41.527,8.516 L43.454,8.516 L43.453,22.403 C43.453,22.799 43.765,23.119 44.15,23.119 L47.308,23.119 C47.693,23.119 48.006,22.799 48.006,22.403 L48.007,8.516 L49.796,8.516 C50.186,8.516 50.502,8.191 50.502,7.79 L50.502,4.515 C50.5064453,4.12049233 50.1905018,3.7969411 49.796,3.792" id="Shape" fill="#00B9F5" transform="matrix(1, 0, 0, 1, -8.881784197001252e-16, 0)"/>
  <path d="M38.305,3.792 L35.112,3.792 C34.7174982,3.7969411 34.4015547,4.12049233 34.406,4.515 L34.406,11.289 C34.4049438,11.7018739 34.0728391,12.03754 33.66,12.043 L32.32,12.043 C31.9021428,12.0375106 31.5675535,11.6948696 31.572,11.277 L31.559,4.515 C31.5634453,4.12049233 31.2475018,3.7969411 30.853,3.792 L27.66,3.792 C27.2654982,3.7969411 26.9495547,4.12049233 26.954,4.515 L26.954,11.938 C26.954,14.758 28.914,16.766 31.664,16.766 C31.664,16.766 33.728,16.767 33.792,16.78 C34.1737827,16.8272459 34.4594204,17.1533202 34.456,17.538 C34.456,17.928 34.171,18.246 33.802,18.294 L33.75,18.304 L29.078,18.322 C28.8883654,18.324372 28.7074418,18.4019866 28.5750379,18.5377662 C28.442634,18.6735459 28.369598,18.8563658 28.372,19.046 L28.372,22.322 C28.372,22.722 28.688,23.045 29.078,23.045 L34.3,23.045 C37.052,23.045 39.012,21.035 39.012,18.215 L39.012,4.515 C39.0158896,4.12032868 38.6996595,3.79694203 38.305,3.792 L38.305,3.792 Z M7.392,9.793 L7.392,11.813 C7.39493864,12.0140403 7.31788303,12.2080117 7.17778883,12.3522318 C7.03769463,12.4964519 6.8460409,12.5791037 6.645,12.582 L4.618,12.584 L4.618,8.532 L6.645,8.532 C7.058,8.532 7.392,8.876 7.392,9.3 L7.392,9.793 L7.392,9.793 Z M7.673,3.791 L0.693,3.791 C0.506903996,3.79310842 0.329284579,3.86913225 0.199290491,4.00231523 C0.0692964033,4.1354982 -0.00240134659,4.31490755 1.24899413e-15,4.501 L1.24899413e-15,7.71 L0.002,7.728 L1.24899413e-15,7.774 L1.24899413e-15,22.297 C1.24899413e-15,22.692 0.288,23.014 0.646,23.023 L3.898,23.023 C4.08798313,23.0211551 4.26942012,22.9437722 4.40225546,22.8079349 C4.53509081,22.6720976 4.60840047,22.4889769 4.606,22.299 L4.618,17.32 L7.673,17.32 C10.231,17.32 12.013,15.502 12.013,12.869 L12.013,8.249 C12.013,5.617 10.231,3.791 7.673,3.791 Z M20.644,17.481 L20.644,17.994 C20.6420479,18.07117 20.6275239,18.1475052 20.601,18.22 C20.4934336,18.5188723 20.2086255,18.7170345 19.891,18.714 L18.561,18.714 C18.146,18.714 17.809,18.391 17.809,17.994 L17.809,17.376 L17.808,17.352 L17.809,15.709 L17.809,15.19 C17.812,14.794 18.147,14.474 18.562,14.474 L19.891,14.474 C20.307,14.474 20.644,14.796 20.644,15.194 L20.644,17.481 L20.644,17.481 Z M20.135,3.811 L15.704,3.811 C15.313,3.811 14.994,4.115 14.994,4.489 L14.994,5.762 C14.994,5.772 14.996,5.78 14.997,5.788 C14.997,5.798 14.994,5.806 14.994,5.815 L14.994,7.56 C14.994,7.958 15.331,8.28 15.747,8.28 L19.967,8.281 C20.3157079,8.33210813 20.5805342,8.62116145 20.601,8.973 L20.601,9.396 C20.563,9.766 20.303,10.037 19.983,10.069 L17.895,10.069 C15.115,10.069 13.135,11.963 13.135,14.619 L13.135,18.429 C13.135,21.073 14.837,22.954 17.597,22.954 L23.389,22.954 C24.428,22.954 25.27,22.147 25.27,21.154 L25.27,8.725 C25.27,5.711 23.755,3.81 20.135,3.81 L20.135,3.811 Z" id="blue" fill="#012B72" transform="matrix(1, 0, 0, 1, -8.881784197001252e-16, 0)"/>
</svg>