<svg width="48" height="48" viewBox="0 0 48 48" fill="none" xmlns="http://www.w3.org/2000/svg">
<circle opacity="0.15" cx="24" cy="24" r="23.5" fill="#F5F9FE" stroke="#E7F1F8"/>
<path fill-rule="evenodd" clip-rule="evenodd" d="M20.7156 15.9247L18.6445 10.8754L21.0173 12.021L24.0374 10.75L27.0227 12.021L29.3568 10.8754L27.5935 15.8911" fill="#254885"/>
<path d="M20.7156 15.9247L18.6445 10.8754L21.0173 12.021L24.0374 10.75L27.0227 12.021L29.3568 10.8754L27.5935 15.8911" stroke="white" stroke-width="1.5" stroke-linecap="round" stroke-linejoin="round"/>
<path fill-rule="evenodd" clip-rule="evenodd" d="M28.2565 37.2493H19.81C16.8675 37.2493 14.3265 35.1171 13.716 32.1358L13.6293 31.7159C13.0239 28.759 13.2532 25.6829 14.2929 22.8576C15.8187 18.7072 21.0382 15.8982 23.9461 15.9654C27.2913 15.6974 32.1694 18.7806 33.6535 23.0105L33.79 23.3978C34.7807 26.2201 34.9693 29.2768 34.3353 32.2071C33.6973 35.1548 31.1716 37.2493 28.2565 37.2493Z" fill="#254885"/>
<path fill-rule="evenodd" clip-rule="evenodd" d="M28.2565 37.2493H19.81C16.8675 37.2493 14.3265 35.1171 13.716 32.1358L13.6293 31.7159C13.0239 28.759 13.2532 25.6829 14.2929 22.8576C15.8187 18.7072 21.0382 15.8982 23.9461 15.9654C27.2913 15.6974 32.1694 18.7806 33.6534 23.0105L33.79 23.3978C34.7807 26.2201 34.9693 29.2768 34.3353 32.2071C33.6973 35.1548 31.1716 37.2493 28.2565 37.2493Z" stroke="white" stroke-width="1.5" stroke-linecap="round" stroke-linejoin="round"/>
<path d="M27.6972 23.8848L20.6562 30.7402" stroke="#00B8F5" stroke-width="1.5" stroke-linecap="round" stroke-linejoin="round"/>
<path fill-rule="evenodd" clip-rule="evenodd" d="M23.3617 23.8743C23.3617 25.0107 22.4311 25.9321 21.2824 25.9321C20.1347 25.9321 19.2031 25.0107 19.2031 23.8743C19.2031 22.7378 20.1347 21.8164 21.2824 21.8164C22.4311 21.8164 23.3617 22.7378 23.3617 23.8743Z" fill="#00B8F5"/>
<path d="M23.3617 23.8743C23.3617 25.0107 22.4311 25.9321 21.2824 25.9321C20.1347 25.9321 19.2031 25.0107 19.2031 23.8743C19.2031 22.7378 20.1347 21.8164 21.2824 21.8164C22.4311 21.8164 23.3617 22.7378 23.3617 23.8743" stroke="#00B8F5" stroke-width="1.5"/>
<path fill-rule="evenodd" clip-rule="evenodd" d="M29.1507 30.7512C29.1507 31.8877 28.2201 32.8091 27.0715 32.8091C25.9238 32.8091 24.9922 31.8877 24.9922 30.7512C24.9922 29.6148 25.9238 28.6934 27.0715 28.6934C28.2201 28.6934 29.1507 29.6148 29.1507 30.7512Z" fill="#00B8F5"/>
<path d="M29.1507 30.7512C29.1507 31.8877 28.2201 32.8091 27.0715 32.8091C25.9238 32.8091 24.9922 31.8877 24.9922 30.7512C24.9922 29.6148 25.9238 28.6934 27.0715 28.6934C28.2201 28.6934 29.1507 29.6148 29.1507 30.7512" stroke="#00B8F5" stroke-width="1.5"/>
</svg>
